<svg width="19" height="34" viewBox="0 0 19 34" fill="none" xmlns="http://www.w3.org/2000/svg">
<path d="M8.01758 2.01224C8.47475 1.26041 9.56578 1.25944 10.0244 2.01028L17.0361 13.4956C17.1487 13.68 17.208 13.892 17.208 14.1079V32.688C17.208 32.7846 17.1297 32.8627 17.0332 32.8628H12.002C11.9053 32.8628 11.8272 32.7846 11.8271 32.688L11.8242 23.1617C11.8239 22.4302 11.2314 21.8376 10.5 21.8374H7.50195C6.77029 21.8376 6.17676 22.4309 6.17676 23.1626V32.688C6.17676 32.7847 6.0986 32.8628 6.00195 32.8628H1.03906C0.942417 32.8628 0.864258 32.7847 0.864258 32.688V14.106C0.86427 13.8907 0.923305 13.6796 1.03516 13.4956L8.01758 2.01224Z" stroke="#737171" stroke-width="1.65"/>
</svg>
